<svg width="32" height="32" viewBox="0 0 32 32" fill="none" xmlns="http://www.w3.org/2000/svg">
<rect width="32" height="32" rx="16" fill="black"/>
<path d="M25.4335 13.1283V7.80052C25.4335 7.20555 24.9467 6.71875 24.3517 6.71875H19.0239C18.429 6.71875 17.9422 7.20555 17.9422 7.80052V10.7754C17.3607 10.5726 16.7252 10.4509 16.0761 10.4509C15.4135 10.4509 14.7915 10.5591 14.21 10.7754V7.80052C14.21 7.20555 13.7232 6.71875 13.1283 6.71875H7.80052C7.20555 6.71875 6.71875 7.20555 6.71875 7.80052V13.1283C6.71875 13.7232 7.20555 14.21 7.80052 14.21H10.7754C10.5726 14.7915 10.4509 15.427 10.4509 16.0761C10.4509 16.7387 10.559 17.3607 10.7754 17.9422H7.80052C7.20555 17.9422 6.71875 18.429 6.71875 19.0239V24.3517C6.71875 24.9467 7.20555 25.4335 7.80052 25.4335H13.1283C13.7232 25.4335 14.21 24.9467 14.21 24.3517V21.3768C14.7915 21.5796 15.427 21.7013 16.0761 21.7013C16.7387 21.7013 17.3607 21.5932 17.9422 21.3768V24.3517C17.9422 24.9467 18.429 25.4335 19.0239 25.4335H24.3517C24.9467 25.4335 25.4335 24.9467 25.4335 24.3517V19.0239C25.4335 18.429 24.9467 17.9422 24.3517 17.9422H21.3768C21.5796 17.3607 21.7013 16.7252 21.7013 16.0761C21.7013 15.4135 21.5932 14.7915 21.3768 14.21H24.3517C24.9467 14.21 25.4335 13.7232 25.4335 13.1283ZM10.4644 23.5674C9.43671 23.5674 8.59834 22.729 8.59834 21.7013C8.59834 20.6736 9.43671 19.8353 10.4644 19.8353H12.3305V21.7013C12.3305 22.729 11.4921 23.5674 10.4644 23.5674ZM12.3305 12.344H10.4644C9.43671 12.344 8.59834 11.5056 8.59834 10.4779C8.59834 9.45023 9.43671 8.61186 10.4644 8.61186C11.4921 8.61186 12.3305 9.45023 12.3305 10.4779V12.344ZM21.6878 19.8217C22.7155 19.8217 23.5539 20.6601 23.5539 21.6878C23.5539 22.7155 22.7155 23.5674 21.6878 23.5674C20.6601 23.5674 19.8217 22.729 19.8217 21.7013V19.8353H21.6878V19.8217ZM21.6878 12.344H19.8217V10.4779C19.8217 9.45023 20.6601 8.61186 21.6878 8.61186C22.7155 8.61186 23.5539 9.45023 23.5539 10.4779C23.5539 11.5056 22.7155 12.344 21.6878 12.344Z" fill="white"/>
</svg>
